<svg width="58" height="58" viewBox="0 0 58 58" fill="none" xmlns="http://www.w3.org/2000/svg">
<g clip-path="url(#clip0_15_272)">
<g opacity="0.3">
<path d="M28.635 56.77C44.1735 56.77 56.77 44.1735 56.77 28.635C56.77 13.0965 44.1735 0.5 28.635 0.5C13.0965 0.5 0.5 13.0965 0.5 28.635C0.5 44.1735 13.0965 56.77 28.635 56.77Z" stroke="#6B2C3E"/>
</g>
<path d="M31 26V22C31 21.3333 30.6 20 29 20C27.4 20 27 21.3333 27 22V30.5351C25.8044 31.2267 25 32.5194 25 34C25 36.2091 26.7909 38 29 38C31.2091 38 33 36.2091 33 34C33 32.5194 32.1956 31.2267 31 30.5351V26ZM31 26H27" stroke="#6B2C3E" stroke-width="2" stroke-linecap="round" stroke-linejoin="round"/>
</g>
<defs>
<clipPath id="clip0_15_272">
<rect width="57.27" height="57.27" fill="white"/>
</clipPath>
</defs>
</svg>
