<svg width="58" height="58" viewBox="0 0 58 58" fill="none" xmlns="http://www.w3.org/2000/svg">
<g clip-path="url(#clip0_15_311)">
<path opacity="0.3" d="M28.635 56.77C44.1735 56.77 56.77 44.1735 56.77 28.635C56.77 13.0965 44.1735 0.5 28.635 0.5C13.0965 0.5 0.5 13.0965 0.5 28.635C0.5 44.1735 13.0965 56.77 28.635 56.77Z" stroke="#6B2C3E"/>
<path d="M20 32L24.2318 26.9219C24.6316 26.4421 25.3684 26.4421 25.7682 26.9219L27.6744 29.2093M38 32L32.8575 23.4292C32.4691 22.7818 31.5309 22.7818 31.1425 23.4292L27.6744 29.2093M27.6744 29.2093L30 32M21.5 20C21 20 20 20.3 20 21.5C20 22.7 21 23 21.5 23C22 23 23 22.7 23 21.5C23 20.3 22 20 21.5 20Z" stroke="#6B2C3E" stroke-width="2" stroke-linecap="round" stroke-linejoin="round"/>
<line x1="20" y1="36" x2="38" y2="36" stroke="#6B2C3E" stroke-width="2" stroke-linecap="round"/>
</g>
<defs>
<clipPath id="clip0_15_311">
<rect width="57.27" height="57.27" fill="white"/>
</clipPath>
</defs>
</svg>
