<svg width="58" height="58" viewBox="0 0 58 58" fill="none" xmlns="http://www.w3.org/2000/svg">
<g clip-path="url(#clip0_15_291)">
<g opacity="0.3">
<path d="M28.635 56.77C44.1735 56.77 56.77 44.1735 56.77 28.635C56.77 13.0965 44.1735 0.5 28.635 0.5C13.0965 0.5 0.5 13.0965 0.5 28.635C0.5 44.1735 13.0965 56.77 28.635 56.77Z" stroke="#6B2C3E"/>
</g>
<path d="M24.0034 33.5049C22.2059 32.2952 20.9555 30.4277 20.5215 28.3049C20.2975 27.2039 20.2975 26.069 20.5215 24.9679C20.7932 23.6532 21.3801 22.4242 22.2314 21.3862C23.0828 20.3483 24.1733 19.5325 25.4094 19.0089C25.91 18.7968 26.4306 18.6353 26.9634 18.5269C28.0643 18.3016 29.1996 18.3016 30.3005 18.5269C30.8333 18.6355 31.3538 18.7969 31.8545 19.0089C32.8376 19.4252 33.7309 20.0275 34.4853 20.7829C34.8601 21.1585 35.1989 21.5687 35.4966 22.0079C35.7956 22.4509 36.051 22.9218 36.2595 23.4139C36.4715 23.9146 36.6329 24.4352 36.7415 24.9679C36.967 26.0688 36.967 27.204 36.7415 28.3049C36.6331 28.8377 36.4717 29.3583 36.2595 29.8589C35.6321 31.3371 34.5902 32.602 33.2595 33.5009" stroke="#6B2C3E" stroke-linecap="round" stroke-linejoin="round"/>
<path d="M17.5969 26.6411H14.8379" stroke="#6B2C3E" stroke-linecap="round" stroke-linejoin="round"/>
<path d="M42.4319 26.6411H39.6729" stroke="#6B2C3E" stroke-linecap="round" stroke-linejoin="round"/>
<path d="M28.6348 12.843V15.602" stroke="#6B2C3E" stroke-linecap="round" stroke-linejoin="round"/>
<path d="M20.8299 18.835L18.8789 16.884" stroke="#6B2C3E" stroke-linecap="round" stroke-linejoin="round"/>
<path d="M38.3905 36.397L36.4395 34.446" stroke="#6B2C3E" stroke-linecap="round" stroke-linejoin="round"/>
<path d="M20.8299 34.446L18.8789 36.397" stroke="#6B2C3E" stroke-linecap="round" stroke-linejoin="round"/>
<path d="M38.3905 16.884L36.4395 18.835" stroke="#6B2C3E" stroke-linecap="round" stroke-linejoin="round"/>
<path d="M25.876 43.198H31.395" stroke="#6B2C3E" stroke-linecap="round" stroke-linejoin="round"/>
<path d="M24.4961 40.438H32.7741" stroke="#6B2C3E" stroke-linecap="round" stroke-linejoin="round"/>
<path d="M24.4961 37.679H32.7741" stroke="#6B2C3E" stroke-linecap="round" stroke-linejoin="round"/>
<path d="M25.876 23.8811C26.8437 28.4161 27.3061 33.0443 27.2549 37.6811" stroke="#6B2C3E" stroke-linecap="round" stroke-linejoin="round"/>
<path d="M31.3956 23.8811C30.4275 28.416 29.9646 33.0443 30.0155 37.6811" stroke="#6B2C3E" stroke-linecap="round" stroke-linejoin="round"/>
<path d="M31.395 28.0192C31.0738 27.5907 30.6572 27.2429 30.1782 27.0034C29.6993 26.7639 29.171 26.6392 28.6355 26.6392C28.1 26.6392 27.5717 26.7639 27.0928 27.0034C26.6138 27.2429 26.1972 27.5907 25.876 28.0192" stroke="#6B2C3E" stroke-linecap="round" stroke-linejoin="round"/>
</g>
<defs>
<clipPath id="clip0_15_291">
<rect width="57.27" height="57.27" fill="white"/>
</clipPath>
</defs>
</svg>
