<svg width="191" height="60" viewBox="0 0 191 60" fill="none" xmlns="http://www.w3.org/2000/svg">
<path d="M41.8997 39.552C41.3561 38.897 34.9602 33.4577 34.7336 33.4577C34.6204 33.4577 34.1965 33.7751 33.7916 34.1631L33.0553 34.8685L30.3881 32.2103C28.9211 30.7483 27.5897 29.5521 27.4294 29.5521C27.2691 29.5521 26.1345 30.6066 24.908 31.8955C23.6815 33.1843 22.6137 34.2388 22.535 34.2388C22.4564 34.2388 22.3921 26.5644 22.3921 17.1845C22.3921 7.62884 22.4921 0.130127 22.6196 0.130127C23.1038 0.130127 30.0667 7.09925 32.0828 9.60171C39.1732 18.4024 42.7011 27.3701 42.7011 36.5927C42.7011 39.6859 42.5313 40.313 41.8997 39.552Z" fill="#6B2C3E"/>
<path d="M11.4564 39.8295C10.2391 39.6482 7.16347 39.4121 4.62159 39.3048L0 39.1098V36.0693C0 30.7575 1.17107 25.7908 3.68377 20.446C6.4865 14.4842 9.61877 10.2228 15.4588 4.42632L19.9184 0L19.9915 17.1845L20.0647 34.3691L16.9973 37.2882C15.3102 38.8937 13.8713 40.1965 13.7997 40.1832C13.7281 40.1699 12.6736 40.0107 11.4564 39.8295Z" fill="#6B2C3E"/>
<path d="M33.0672 40.7228C31.4204 39.5683 29.888 38.4573 29.6619 38.2539C29.0445 37.6984 28.5968 37.7954 27.2026 38.7867C26.5044 39.2831 25.8936 39.6498 25.8454 39.6016C25.7972 39.5534 26.055 38.6286 26.4182 37.5465C27.1007 35.5134 27.2605 34.2388 26.833 34.2388C26.6978 34.2388 25.3808 35.5821 23.9063 37.2239C21.2473 40.1845 21.2225 40.2038 20.889 39.5673C20.449 38.7275 20.2212 38.7545 18.7727 39.8178C17.5006 40.7516 16.2944 41.2036 16.065 40.8325C15.9908 40.7125 17.1015 39.5122 18.5332 38.1652L21.1362 35.716L21.945 36.1938L22.7539 36.6716L25.1265 34.1561L27.4991 31.6406L28.5257 32.7017C29.0903 33.2853 30.3394 34.4645 31.3015 35.3222L33.0508 36.8816L33.9166 36.2212L34.7824 35.5608L37.57 38.0325C39.1032 39.3919 40.3576 40.6112 40.3576 40.742C40.3576 40.983 38.5375 40.2444 36.1502 39.0347L34.8411 38.3713L35.0228 39.2342C35.1227 39.7089 35.4084 40.7123 35.6577 41.4641C35.9069 42.216 36.0997 42.829 36.0862 42.8264C36.0726 42.8235 34.7141 41.8772 33.0672 40.7228Z" fill="#888989"/>
<path d="M33.9789 54.1243C30.7099 51.3405 23.2525 47.2864 18.2399 45.568C13.1129 43.8102 4.77311 42.0553 1.52786 42.0511C0.780718 42.0502 0.551199 41.9328 0.436121 41.4928C0.290664 40.9365 0.297539 40.9358 4.37642 41.0782C15.7188 41.4742 27.4271 45.0602 35.7202 50.6779C36.5348 51.2297 37.2665 51.7869 37.3463 51.916C37.4909 52.1499 35.2567 54.8166 34.9311 54.7988C34.8369 54.7939 34.4085 54.4901 33.9789 54.1243Z" fill="#888989"/>
<path d="M11.0057 57.2402C9.31768 56.2416 6.37643 53.7519 7.55091 54.3157C9.19135 55.1033 13.3166 58.193 12.7277 58.193C12.6665 58.193 11.8916 57.7642 11.0057 57.2402Z" fill="#888989"/>
<path d="M26.2928 56.9902C22.5341 53.6646 18.0996 50.9112 13.0187 48.7484C9.8112 47.3831 5.22529 45.871 2.94393 45.4266C1.49774 45.1448 1.30277 45.0306 1.05506 44.3201C0.903147 43.8843 0.819589 43.487 0.869377 43.4372C1.02585 43.2807 7.0489 44.3783 9.63383 45.0343C17.5097 47.033 25.982 51.2635 30.8181 55.6122L32.3442 56.9845L30.6879 57.8365C29.7769 58.3051 28.8536 58.6941 28.6361 58.7011C28.4186 58.708 27.3641 57.9381 26.2928 56.9902Z" fill="#888989"/>
<path d="M17.9656 58.6768C14.8504 55.8157 7.86181 51.3682 4.68764 50.2268C3.61195 49.84 3.36828 49.6064 2.77187 48.3903C2.39604 47.624 2.1951 46.9971 2.32534 46.9971C3.23965 46.9971 11.5252 50.3593 14.0185 51.7421C18.4521 54.2009 24.9085 59.32 24.1681 59.7895C23.9788 59.9095 22.828 60.0042 21.6108 59.9998L19.3976 59.992L17.9656 58.6768Z" fill="#888989"/>
<path d="M63.51 37.0111H73.59L73.835 37.9911H62.985L63.51 37.0111ZM82.095 45.5861C82.2117 45.5861 82.27 45.6561 82.27 45.7961C82.27 45.9361 82.2117 46.0061 82.095 46.0061C81.6283 46.0061 80.905 45.9828 79.925 45.9361C78.8983 45.8894 78.1633 45.8661 77.72 45.8661C77.1367 45.8661 76.425 45.8894 75.585 45.9361C74.7917 45.9828 74.1617 46.0061 73.695 46.0061C73.6017 46.0061 73.555 45.9361 73.555 45.7961C73.555 45.6561 73.6017 45.5861 73.695 45.5861C74.3017 45.5861 74.7333 45.5278 74.99 45.4111C75.27 45.2711 75.41 45.0378 75.41 44.7111C75.41 44.3144 75.1767 43.6494 74.71 42.7161L67.605 28.6811L69.32 25.6711L62.355 41.0361C62.0517 41.7128 61.9 42.3428 61.9 42.9261C61.9 43.7661 62.1917 44.4194 62.775 44.8861C63.3817 45.3528 64.1867 45.5861 65.19 45.5861C65.3067 45.5861 65.365 45.6561 65.365 45.7961C65.365 45.9361 65.3067 46.0061 65.19 46.0061C64.77 46.0061 64.1633 45.9828 63.37 45.9361C62.4833 45.8894 61.7133 45.8661 61.06 45.8661C60.43 45.8661 59.6717 45.8894 58.785 45.9361C57.9917 45.9828 57.35 46.0061 56.86 46.0061C56.7667 46.0061 56.72 45.9361 56.72 45.7961C56.72 45.6561 56.7667 45.5861 56.86 45.5861C57.5133 45.5861 58.0617 45.4578 58.505 45.2011C58.9483 44.9211 59.3917 44.4428 59.835 43.7661C60.2783 43.0661 60.8033 42.0394 61.41 40.6861L69.005 23.9911C69.0517 23.9211 69.1567 23.8861 69.32 23.8861C69.5067 23.8861 69.6117 23.9211 69.635 23.9911L78.385 41.2111C79.2017 42.8678 79.8783 44.0111 80.415 44.6411C80.9517 45.2711 81.5117 45.5861 82.095 45.5861ZM89.6487 43.1711C89.6487 43.8944 89.707 44.4194 89.8237 44.7461C89.9404 45.0728 90.162 45.2944 90.4887 45.4111C90.8387 45.5278 91.387 45.5861 92.1337 45.5861C92.2037 45.5861 92.2387 45.6561 92.2387 45.7961C92.2387 45.9361 92.2037 46.0061 92.1337 46.0061C91.3637 46.0061 90.757 45.9944 90.3137 45.9711L87.6537 45.9361L85.0637 45.9711C84.597 45.9944 83.967 46.0061 83.1737 46.0061C83.127 46.0061 83.1037 45.9361 83.1037 45.7961C83.1037 45.6561 83.127 45.5861 83.1737 45.5861C83.9204 45.5861 84.4687 45.5278 84.8187 45.4111C85.1687 45.2944 85.402 45.0728 85.5187 44.7461C85.6587 44.3961 85.7287 43.8711 85.7287 43.1711V26.9661C85.7287 26.2661 85.6587 25.7528 85.5187 25.4261C85.402 25.0994 85.1687 24.8778 84.8187 24.7611C84.4687 24.6211 83.9204 24.5511 83.1737 24.5511C83.127 24.5511 83.1037 24.4811 83.1037 24.3411C83.1037 24.2011 83.127 24.1311 83.1737 24.1311L85.0637 24.1661C86.137 24.2128 87.0004 24.2361 87.6537 24.2361C88.377 24.2361 89.2754 24.2128 90.3487 24.1661L92.1337 24.1311C92.2037 24.1311 92.2387 24.2011 92.2387 24.3411C92.2387 24.4811 92.2037 24.5511 92.1337 24.5511C91.4104 24.5511 90.8737 24.6211 90.5237 24.7611C90.1737 24.9011 89.9404 25.1461 89.8237 25.4961C89.707 25.8228 89.6487 26.3361 89.6487 27.0361V43.1711ZM108.94 24.9361C106.163 24.9361 104.168 26.7444 102.955 30.3611C102.931 30.4311 102.861 30.4661 102.745 30.4661C102.628 30.4428 102.57 30.3961 102.57 30.3261C102.663 29.3928 102.768 28.1911 102.885 26.7211C103.001 25.2278 103.06 24.1078 103.06 23.3611C103.06 23.2444 103.118 23.1861 103.235 23.1861C103.375 23.1861 103.445 23.2444 103.445 23.3611C103.445 23.8744 104.11 24.1311 105.44 24.1311C107.446 24.2011 109.791 24.2361 112.475 24.2361C113.851 24.2361 115.31 24.2128 116.85 24.1661L119.23 24.1311C120.116 24.1311 120.758 24.0728 121.155 23.9561C121.575 23.8394 121.843 23.6061 121.96 23.2561C121.983 23.1628 122.053 23.1161 122.17 23.1161C122.31 23.1161 122.38 23.1628 122.38 23.2561C122.31 23.9561 122.228 25.0761 122.135 26.6161C122.065 28.1561 122.03 29.3928 122.03 30.3261C122.03 30.3961 121.971 30.4311 121.855 30.4311C121.738 30.4311 121.668 30.3961 121.645 30.3261C121.295 28.5294 120.641 27.1878 119.685 26.3011C118.728 25.3911 117.55 24.9361 116.15 24.9361C115.473 24.9361 115.018 25.0878 114.785 25.3911C114.575 25.6711 114.47 26.2194 114.47 27.0361V43.1711C114.47 43.8944 114.54 44.4194 114.68 44.7461C114.82 45.0728 115.088 45.2944 115.485 45.4111C115.881 45.5278 116.511 45.5861 117.375 45.5861C117.445 45.5861 117.48 45.6561 117.48 45.7961C117.48 45.9361 117.445 46.0061 117.375 46.0061C116.535 46.0061 115.87 45.9944 115.38 45.9711L112.475 45.9361L109.64 45.9711C109.15 45.9944 108.473 46.0061 107.61 46.0061C107.54 46.0061 107.505 45.9361 107.505 45.7961C107.505 45.6561 107.54 45.5861 107.61 45.5861C108.45 45.5861 109.068 45.5278 109.465 45.4111C109.885 45.2944 110.165 45.0728 110.305 44.7461C110.468 44.3961 110.55 43.8711 110.55 43.1711V26.9661C110.55 26.1728 110.445 25.6361 110.235 25.3561C110.025 25.0761 109.593 24.9361 108.94 24.9361ZM131.255 43.1711C131.255 43.8944 131.313 44.4194 131.43 44.7461C131.547 45.0728 131.768 45.2944 132.095 45.4111C132.445 45.5278 132.993 45.5861 133.74 45.5861C133.81 45.5861 133.845 45.6561 133.845 45.7961C133.845 45.9361 133.81 46.0061 133.74 46.0061C132.97 46.0061 132.363 45.9944 131.92 45.9711L129.26 45.9361L126.67 45.9711C126.203 45.9944 125.573 46.0061 124.78 46.0061C124.733 46.0061 124.71 45.9361 124.71 45.7961C124.71 45.6561 124.733 45.5861 124.78 45.5861C125.527 45.5861 126.075 45.5278 126.425 45.4111C126.775 45.2944 127.008 45.0728 127.125 44.7461C127.265 44.3961 127.335 43.8711 127.335 43.1711V26.9661C127.335 26.2661 127.265 25.7528 127.125 25.4261C127.008 25.0994 126.775 24.8778 126.425 24.7611C126.075 24.6211 125.527 24.5511 124.78 24.5511C124.733 24.5511 124.71 24.4811 124.71 24.3411C124.71 24.2011 124.733 24.1311 124.78 24.1311L126.67 24.1661C127.743 24.2128 128.607 24.2361 129.26 24.2361C129.983 24.2361 130.882 24.2128 131.955 24.1661L133.74 24.1311C133.81 24.1311 133.845 24.2011 133.845 24.3411C133.845 24.4811 133.81 24.5511 133.74 24.5511C133.017 24.5511 132.48 24.6211 132.13 24.7611C131.78 24.9011 131.547 25.1461 131.43 25.4961C131.313 25.8228 131.255 26.3361 131.255 27.0361V43.1711ZM149.658 46.4261C146.998 46.4261 144.688 45.9361 142.728 44.9561C140.768 43.9528 139.263 42.5994 138.213 40.8961C137.163 39.1928 136.638 37.3028 136.638 35.2261C136.638 33.0094 137.221 31.0261 138.388 29.2761C139.578 27.5261 141.211 26.1728 143.288 25.2161C145.365 24.2361 147.698 23.7461 150.288 23.7461C151.408 23.7461 152.528 23.8394 153.648 24.0261C154.768 24.1894 155.666 24.4111 156.343 24.6911C156.6 24.7844 156.74 24.8661 156.763 24.9361C156.81 24.9828 156.845 25.1694 156.868 25.4961L157.323 30.3611C157.323 30.4311 157.253 30.4778 157.113 30.5011C156.996 30.5244 156.926 30.4894 156.903 30.3961C156.6 29.6261 156.11 28.7861 155.433 27.8761C154.756 26.9661 153.87 26.1728 152.773 25.4961C151.676 24.8194 150.405 24.4811 148.958 24.4811C147.465 24.4811 146.1 24.8894 144.863 25.7061C143.626 26.5228 142.646 27.6894 141.923 29.2061C141.223 30.7228 140.873 32.4844 140.873 34.4911C140.873 36.6844 141.281 38.6444 142.098 40.3711C142.938 42.0978 144.093 43.4394 145.563 44.3961C147.033 45.3528 148.69 45.8311 150.533 45.8311C151.49 45.8311 152.225 45.7261 152.738 45.5161C153.251 45.3061 153.625 44.8978 153.858 44.2911C154.091 43.6844 154.208 42.7861 154.208 41.5961C154.208 40.3828 154.138 39.5428 153.998 39.0761C153.858 38.5861 153.555 38.2594 153.088 38.0961C152.645 37.9328 151.851 37.8511 150.708 37.8511C150.568 37.8511 150.498 37.7578 150.498 37.5711C150.498 37.5011 150.51 37.4428 150.533 37.3961C150.58 37.3261 150.626 37.2911 150.673 37.2911C152.656 37.4078 154.266 37.4661 155.503 37.4661C156.693 37.4661 157.93 37.4311 159.213 37.3611C159.306 37.3611 159.353 37.4428 159.353 37.6061C159.376 37.7694 159.33 37.8511 159.213 37.8511C158.793 37.8278 158.49 37.9094 158.303 38.0961C158.14 38.2594 158.035 38.6094 157.988 39.1461C157.941 39.6828 157.918 40.6161 157.918 41.9461C157.918 42.9961 157.953 43.7428 158.023 44.1861C158.116 44.6294 158.163 44.9094 158.163 45.0261C158.163 45.1661 158.14 45.2594 158.093 45.3061C158.046 45.3528 157.941 45.3994 157.778 45.4461C154.768 46.0994 152.061 46.4261 149.658 46.4261ZM167.628 43.0311C167.628 43.6378 167.675 44.0811 167.768 44.3611C167.862 44.6178 168.037 44.7928 168.293 44.8861C168.573 44.9794 169.017 45.0261 169.623 45.0261H170.813C172.633 45.0261 174.208 44.5478 175.538 43.5911C176.868 42.6111 177.755 41.2928 178.198 39.6361C178.198 39.5894 178.245 39.5661 178.338 39.5661C178.385 39.5661 178.432 39.5894 178.478 39.6361C178.548 39.6594 178.583 39.6828 178.583 39.7061C178.373 42.0161 178.268 43.9411 178.268 45.4811C178.268 45.6678 178.222 45.8078 178.128 45.9011C178.058 45.9711 177.93 46.0061 177.743 46.0061H161.223C161.177 46.0061 161.153 45.9361 161.153 45.7961C161.153 45.6561 161.177 45.5861 161.223 45.5861C161.97 45.5861 162.507 45.5278 162.833 45.4111C163.183 45.2944 163.417 45.0728 163.533 44.7461C163.673 44.3961 163.743 43.8711 163.743 43.1711V26.9661C163.743 26.2661 163.673 25.7528 163.533 25.4261C163.417 25.0994 163.183 24.8778 162.833 24.7611C162.483 24.6211 161.947 24.5511 161.223 24.5511C161.177 24.5511 161.153 24.4811 161.153 24.3411C161.153 24.2011 161.177 24.1311 161.223 24.1311L163.008 24.1661C164.082 24.2128 164.968 24.2361 165.668 24.2361C166.368 24.2361 167.255 24.2128 168.328 24.1661L170.113 24.1311C170.183 24.1311 170.218 24.2011 170.218 24.3411C170.218 24.4811 170.183 24.5511 170.113 24.5511C169.39 24.5511 168.853 24.6211 168.503 24.7611C168.153 24.8778 167.92 25.1111 167.803 25.4611C167.687 25.7878 167.628 26.3011 167.628 27.0011V43.0311ZM186.841 43.1711C186.841 43.8944 186.899 44.4194 187.016 44.7461C187.132 45.0728 187.354 45.2944 187.681 45.4111C188.031 45.5278 188.579 45.5861 189.326 45.5861C189.396 45.5861 189.431 45.6561 189.431 45.7961C189.431 45.9361 189.396 46.0061 189.326 46.0061C188.556 46.0061 187.949 45.9944 187.506 45.9711L184.846 45.9361L182.256 45.9711C181.789 45.9944 181.159 46.0061 180.366 46.0061C180.319 46.0061 180.296 45.9361 180.296 45.7961C180.296 45.6561 180.319 45.5861 180.366 45.5861C181.112 45.5861 181.661 45.5278 182.011 45.4111C182.361 45.2944 182.594 45.0728 182.711 44.7461C182.851 44.3961 182.921 43.8711 182.921 43.1711V26.9661C182.921 26.2661 182.851 25.7528 182.711 25.4261C182.594 25.0994 182.361 24.8778 182.011 24.7611C181.661 24.6211 181.112 24.5511 180.366 24.5511C180.319 24.5511 180.296 24.4811 180.296 24.3411C180.296 24.2011 180.319 24.1311 180.366 24.1311L182.256 24.1661C183.329 24.2128 184.192 24.2361 184.846 24.2361C185.569 24.2361 186.467 24.2128 187.541 24.1661L189.326 24.1311C189.396 24.1311 189.431 24.2011 189.431 24.3411C189.431 24.4811 189.396 24.5511 189.326 24.5511C188.602 24.5511 188.066 24.6211 187.716 24.7611C187.366 24.9011 187.132 25.1461 187.016 25.4961C186.899 25.8228 186.841 26.3361 186.841 27.0361V43.1711Z" fill="#6B2C3E"/>
<path d="M64.42 19C64.2053 19 63.8087 18.6127 63.23 17.838C62.6513 17.054 61.9513 15.9667 61.13 14.576L62.418 14.184C63.1927 15.36 63.8367 16.2793 64.35 16.942C64.8727 17.6047 65.3347 18.0853 65.736 18.384C66.1373 18.6827 66.5293 18.832 66.912 18.832C66.9307 18.832 66.94 18.86 66.94 18.916C66.94 18.972 66.9307 19 66.912 19H64.42ZM61.41 10.208C62.2593 10.208 62.9173 10.3667 63.384 10.684C63.8507 10.992 64.084 11.426 64.084 11.986C64.084 12.518 63.93 12.9987 63.622 13.428C63.3233 13.8573 62.9313 14.1933 62.446 14.436C61.9607 14.6693 61.452 14.786 60.92 14.786C60.556 14.786 60.2993 14.7813 60.15 14.772V17.866C60.15 18.1553 60.1733 18.3653 60.22 18.496C60.2667 18.6267 60.3553 18.7153 60.486 18.762C60.626 18.8087 60.8453 18.832 61.144 18.832C61.1627 18.832 61.172 18.86 61.172 18.916C61.172 18.972 61.1627 19 61.144 19C60.836 19 60.5933 18.9953 60.416 18.986L59.352 18.972L58.33 18.986C58.1433 18.9953 57.8913 19 57.574 19C57.546 19 57.532 18.972 57.532 18.916C57.532 18.86 57.546 18.832 57.574 18.832C57.8727 18.832 58.0873 18.8087 58.218 18.762C58.358 18.7153 58.4513 18.6267 58.498 18.496C58.554 18.356 58.582 18.146 58.582 17.866V11.384C58.582 11.104 58.5587 10.8987 58.512 10.768C58.4653 10.6373 58.372 10.5487 58.232 10.502C58.092 10.446 57.8773 10.418 57.588 10.418C57.5693 10.418 57.56 10.39 57.56 10.334C57.56 10.278 57.5693 10.25 57.588 10.25L58.33 10.264C58.7593 10.2827 59.1 10.292 59.352 10.292C59.6693 10.292 60.0007 10.278 60.346 10.25C60.4673 10.2407 60.6167 10.2313 60.794 10.222C60.9807 10.2127 61.186 10.208 61.41 10.208ZM62.488 12.518C62.488 11.7527 62.376 11.2253 62.152 10.936C61.928 10.6467 61.606 10.502 61.186 10.502C60.8127 10.502 60.5467 10.572 60.388 10.712C60.2293 10.852 60.15 11.0853 60.15 11.412V14.38C60.374 14.4173 60.6447 14.436 60.962 14.436C61.5033 14.436 61.8907 14.2867 62.124 13.988C62.3667 13.68 62.488 13.19 62.488 12.518ZM70.0993 19.168C69.5113 19.168 69.0026 19.0467 68.5733 18.804C68.144 18.552 67.8173 18.2207 67.5933 17.81C67.3693 17.39 67.2573 16.9373 67.2573 16.452C67.2573 15.9107 67.3926 15.4113 67.6633 14.954C67.934 14.4967 68.3073 14.1373 68.7833 13.876C69.2686 13.6053 69.8146 13.47 70.4213 13.47C71 13.47 71.448 13.6007 71.7653 13.862C72.0826 14.1233 72.2413 14.5293 72.2413 15.08C72.2413 15.3693 72.19 15.514 72.0873 15.514H70.7433C70.762 14.9447 70.706 14.5107 70.5753 14.212C70.4446 13.904 70.216 13.75 69.8893 13.75C69.516 13.75 69.2173 13.9413 68.9933 14.324C68.7786 14.7067 68.6713 15.2153 68.6713 15.85C68.6713 16.6713 68.858 17.3153 69.2313 17.782C69.614 18.2487 70.16 18.482 70.8693 18.482C71.1213 18.482 71.336 18.454 71.5133 18.398C71.6906 18.3327 71.924 18.23 72.2133 18.09L72.2413 18.076C72.26 18.076 72.2786 18.0947 72.2973 18.132C72.3253 18.1693 72.33 18.1973 72.3113 18.216C71.966 18.552 71.616 18.7947 71.2613 18.944C70.9066 19.0933 70.5193 19.168 70.0993 19.168ZM68.1673 15.262L71.2333 15.206V15.514L68.1813 15.528L68.1673 15.262ZM74.5929 14.268C74.5929 14.5387 74.6862 14.772 74.8729 14.968C75.0689 15.164 75.3489 15.3693 75.7129 15.584C76.0675 15.7893 76.3289 15.9527 76.4969 16.074C76.6742 16.186 76.8329 16.3493 76.9729 16.564C77.1129 16.7693 77.1829 17.0213 77.1829 17.32C77.1829 17.6373 77.1035 17.936 76.9449 18.216C76.7862 18.496 76.5482 18.7247 76.2309 18.902C75.9135 19.07 75.5355 19.154 75.0969 19.154C74.5835 19.154 74.0982 19.028 73.6409 18.776C73.5849 18.72 73.5569 18.664 73.5569 18.608L73.5289 17.222C73.5289 17.194 73.5522 17.18 73.5989 17.18C73.6549 17.1707 73.6875 17.1753 73.6969 17.194C73.8462 17.6607 74.0935 18.0573 74.4389 18.384C74.7842 18.7107 75.1342 18.874 75.4889 18.874C75.6849 18.874 75.8389 18.8133 75.9509 18.692C76.0722 18.5707 76.1329 18.3933 76.1329 18.16C76.1329 17.8147 76.0349 17.544 75.8389 17.348C75.6429 17.1427 75.3535 16.9327 74.9709 16.718C74.6442 16.5407 74.3969 16.396 74.2289 16.284C74.0609 16.172 73.9115 16.0133 73.7809 15.808C73.6502 15.6027 73.5849 15.3507 73.5849 15.052C73.5849 14.5013 73.7809 14.1 74.1729 13.848C74.5649 13.5867 75.0455 13.456 75.6149 13.456C75.8295 13.456 76.0209 13.47 76.1889 13.498C76.3662 13.526 76.5622 13.582 76.7769 13.666C76.8609 13.694 76.9029 13.7453 76.9029 13.82C76.9029 14.0533 76.8982 14.2353 76.8889 14.366L76.8749 15.066C76.8749 15.094 76.8469 15.108 76.7909 15.108C76.7349 15.108 76.7069 15.094 76.7069 15.066C76.7069 14.8887 76.6322 14.6973 76.4829 14.492C76.3335 14.2773 76.1375 14.0953 75.8949 13.946C75.6615 13.7967 75.4189 13.722 75.1669 13.722C74.7842 13.722 74.5929 13.904 74.5929 14.268ZM78.4837 19C78.4557 19 78.4417 18.972 78.4417 18.916C78.4417 18.86 78.4557 18.832 78.4837 18.832C78.773 18.832 78.969 18.7667 79.0717 18.636C79.1743 18.496 79.2257 18.2393 79.2257 17.866V15.36C79.2257 15.0427 79.193 14.814 79.1277 14.674C79.0623 14.534 78.955 14.464 78.8057 14.464C78.6843 14.464 78.5117 14.5153 78.2877 14.618H78.2737C78.2363 14.618 78.2083 14.5947 78.1897 14.548C78.171 14.492 78.1757 14.4593 78.2037 14.45L80.3177 13.47L80.3597 13.456C80.4063 13.456 80.453 13.4793 80.4997 13.526C80.5463 13.5727 80.5697 13.6147 80.5697 13.652V13.96C80.551 14.3333 80.5417 14.7907 80.5417 15.332V17.866C80.5417 18.2393 80.593 18.496 80.6957 18.636C80.8077 18.7667 81.0083 18.832 81.2977 18.832C81.3257 18.832 81.3397 18.86 81.3397 18.916C81.3397 18.972 81.3257 19 81.2977 19C81.055 19 80.8637 18.9953 80.7237 18.986L79.8837 18.972L79.0577 18.986C78.9177 18.9953 78.7263 19 78.4837 19ZM79.8277 12.07C79.557 12.07 79.347 11.9953 79.1977 11.846C79.0483 11.6967 78.9737 11.4867 78.9737 11.216C78.9737 10.9733 79.0483 10.782 79.1977 10.642C79.3563 10.4927 79.5663 10.418 79.8277 10.418C80.089 10.418 80.2897 10.488 80.4297 10.628C80.5697 10.768 80.6397 10.964 80.6397 11.216C80.6397 11.4867 80.5697 11.6967 80.4297 11.846C80.2897 11.9953 80.089 12.07 79.8277 12.07ZM84.5414 19.182C84.1307 19.182 83.7574 19.0747 83.4214 18.86C83.0947 18.6453 82.8334 18.3327 82.6374 17.922C82.4414 17.502 82.3434 17.012 82.3434 16.452C82.3434 15.7427 82.5067 15.164 82.8334 14.716C83.1694 14.2587 83.5801 13.9273 84.0654 13.722C84.5601 13.5167 85.0547 13.414 85.5494 13.414C86.1187 13.414 86.6927 13.5587 87.2714 13.848L86.9494 14.982C86.7534 14.562 86.5294 14.2587 86.2774 14.072C86.0254 13.876 85.7127 13.778 85.3394 13.778C84.8354 13.778 84.4481 13.9553 84.1774 14.31C83.9161 14.6553 83.7854 15.22 83.7854 16.004C83.7854 16.788 83.9254 17.404 84.2054 17.852C84.4854 18.2907 84.8541 18.51 85.3114 18.51C85.6474 18.51 85.9507 18.4213 86.2214 18.244C86.5014 18.0573 86.7954 17.796 87.1034 17.46L87.2434 17.586C86.8141 18.062 86.3894 18.4493 85.9694 18.748C85.5587 19.0373 85.0827 19.182 84.5414 19.182ZM87.9574 17.376C87.9574 17.6933 87.9854 17.9173 88.0414 18.048C88.1067 18.1787 88.2094 18.244 88.3494 18.244C88.4707 18.244 88.6621 18.1927 88.9234 18.09H88.9374C88.9654 18.09 88.9887 18.1133 89.0074 18.16C89.0354 18.2067 89.0401 18.2347 89.0214 18.244L87.0894 19.182L87.0194 19.196C86.9167 19.196 86.8281 19.0747 86.7534 18.832C86.6787 18.5893 86.6414 18.2627 86.6414 17.852V10.754C86.6414 10.4273 86.6087 10.194 86.5434 10.054C86.4874 9.914 86.3847 9.844 86.2354 9.844C86.1141 9.844 85.9414 9.89533 85.7174 9.998H85.7034C85.6661 9.998 85.6334 9.97467 85.6054 9.928C85.5867 9.872 85.5867 9.83933 85.6054 9.83L87.6634 8.864L87.7194 8.85C87.7661 8.85 87.8174 8.87333 87.8734 8.92C87.9294 8.95733 87.9574 8.99467 87.9574 9.032V17.376ZM92.6021 19.168C92.0141 19.168 91.5054 19.0467 91.0761 18.804C90.6468 18.552 90.3201 18.2207 90.0961 17.81C89.8721 17.39 89.7601 16.9373 89.7601 16.452C89.7601 15.9107 89.8954 15.4113 90.1661 14.954C90.4368 14.4967 90.8101 14.1373 91.2861 13.876C91.7714 13.6053 92.3174 13.47 92.9241 13.47C93.5028 13.47 93.9508 13.6007 94.2681 13.862C94.5854 14.1233 94.7441 14.5293 94.7441 15.08C94.7441 15.3693 94.6928 15.514 94.5901 15.514H93.2461C93.2648 14.9447 93.2088 14.5107 93.0781 14.212C92.9474 13.904 92.7188 13.75 92.3921 13.75C92.0188 13.75 91.7201 13.9413 91.4961 14.324C91.2814 14.7067 91.1741 15.2153 91.1741 15.85C91.1741 16.6713 91.3608 17.3153 91.7341 17.782C92.1168 18.2487 92.6628 18.482 93.3721 18.482C93.6241 18.482 93.8388 18.454 94.0161 18.398C94.1934 18.3327 94.4268 18.23 94.7161 18.09L94.7441 18.076C94.7628 18.076 94.7814 18.0947 94.8001 18.132C94.8281 18.1693 94.8328 18.1973 94.8141 18.216C94.4688 18.552 94.1188 18.7947 93.7641 18.944C93.4094 19.0933 93.0221 19.168 92.6021 19.168ZM90.6701 15.262L93.7361 15.206V15.514L90.6841 15.528L90.6701 15.262ZM99.7557 19C99.7277 19 99.7137 18.972 99.7137 18.916C99.7137 18.86 99.7277 18.832 99.7557 18.832C100.045 18.832 100.241 18.7667 100.344 18.636C100.446 18.496 100.498 18.2393 100.498 17.866V15.85C100.498 15.346 100.404 14.9727 100.218 14.73C100.04 14.4873 99.7557 14.366 99.3637 14.366C99.0743 14.366 98.7803 14.4407 98.4817 14.59C98.1923 14.73 97.9637 14.9167 97.7957 15.15L97.7257 14.982C98.0617 14.4967 98.435 14.1187 98.8457 13.848C99.2657 13.568 99.709 13.428 100.176 13.428C100.68 13.428 101.076 13.5913 101.366 13.918C101.664 14.2353 101.814 14.6553 101.814 15.178V17.866C101.814 18.2393 101.865 18.496 101.968 18.636C102.08 18.7667 102.28 18.832 102.57 18.832C102.598 18.832 102.612 18.86 102.612 18.916C102.612 18.972 102.598 19 102.57 19C102.327 19 102.136 18.9953 101.996 18.986L101.156 18.972L100.344 18.986C100.194 18.9953 99.9983 19 99.7557 19ZM95.9897 19C95.9617 19 95.9477 18.972 95.9477 18.916C95.9477 18.86 95.9617 18.832 95.9897 18.832C96.279 18.832 96.475 18.7667 96.5777 18.636C96.6803 18.496 96.7317 18.2393 96.7317 17.866V15.234C96.7317 14.9447 96.6943 14.7347 96.6197 14.604C96.5543 14.464 96.447 14.394 96.2977 14.394C96.139 14.394 95.915 14.4593 95.6257 14.59H95.5977C95.5697 14.59 95.5463 14.5667 95.5277 14.52C95.5183 14.4733 95.523 14.4453 95.5417 14.436L97.4877 13.484C97.5437 13.4653 97.5763 13.456 97.5857 13.456C97.6977 13.456 97.8003 13.5773 97.8937 13.82C97.9963 14.0533 98.0477 14.366 98.0477 14.758V17.866C98.0477 18.2393 98.099 18.496 98.2017 18.636C98.3137 18.7667 98.5143 18.832 98.8037 18.832C98.8317 18.832 98.8457 18.86 98.8457 18.916C98.8457 18.972 98.8317 19 98.8037 19C98.561 19 98.3697 18.9953 98.2297 18.986L97.3897 18.972L96.5637 18.986C96.4237 18.9953 96.2323 19 95.9897 19ZM106.677 13.904C106.714 13.8387 106.691 13.806 106.607 13.806C105.841 13.806 105.207 13.932 104.703 14.184C104.199 14.4267 103.863 14.7953 103.695 15.29C103.695 15.2993 103.676 15.304 103.639 15.304C103.564 15.304 103.531 15.2853 103.541 15.248L104.129 13.05C104.129 13.0407 104.147 13.036 104.185 13.036C104.259 13.036 104.292 13.0547 104.283 13.092C104.264 13.1667 104.255 13.2227 104.255 13.26C104.255 13.3907 104.311 13.4793 104.423 13.526C104.535 13.5727 104.721 13.596 104.983 13.596H108.203C108.24 13.596 108.273 13.6147 108.301 13.652C108.329 13.6893 108.333 13.7267 108.315 13.764L105.123 18.65C105.095 18.7153 105.118 18.748 105.193 18.748C106.107 18.748 106.812 18.6173 107.307 18.356C107.801 18.0947 108.109 17.6933 108.231 17.152C108.24 17.124 108.268 17.11 108.315 17.11C108.371 17.11 108.399 17.124 108.399 17.152L108.371 18.846C108.371 18.8833 108.357 18.9207 108.329 18.958C108.301 18.986 108.268 19 108.231 19H103.653C103.615 19 103.583 18.9813 103.555 18.944C103.536 18.9067 103.536 18.8693 103.555 18.832L106.677 13.904ZM113.513 19.084C113.475 19.1027 113.429 19.112 113.373 19.112C113.186 19.112 113.013 18.9953 112.855 18.762C112.696 18.5193 112.617 18.202 112.617 17.81V15.43C112.617 14.8327 112.565 14.3987 112.463 14.128C112.369 13.8573 112.206 13.722 111.973 13.722C111.478 13.722 111.198 14.1047 111.133 14.87C111.105 15.15 111.021 15.3507 110.881 15.472C110.75 15.5933 110.563 15.654 110.321 15.654C110.087 15.654 109.915 15.6073 109.803 15.514C109.7 15.4113 109.649 15.2807 109.649 15.122C109.649 14.842 109.812 14.576 110.139 14.324C110.465 14.0627 110.857 13.8527 111.315 13.694C111.781 13.5353 112.192 13.456 112.547 13.456C112.957 13.456 113.289 13.5867 113.541 13.848C113.802 14.1 113.933 14.4873 113.933 15.01V17.488C113.933 17.7587 113.979 17.9687 114.073 18.118C114.175 18.2673 114.315 18.342 114.493 18.342C114.623 18.342 114.759 18.3093 114.899 18.244H114.913C114.95 18.244 114.973 18.2673 114.983 18.314C115.001 18.3513 114.992 18.3793 114.955 18.398L113.513 19.084ZM110.825 19.098C110.423 19.098 110.12 19.0093 109.915 18.832C109.709 18.6547 109.607 18.4073 109.607 18.09C109.607 17.838 109.667 17.6373 109.789 17.488C109.91 17.3293 110.059 17.208 110.237 17.124C110.423 17.0307 110.68 16.928 111.007 16.816L111.357 16.69L112.757 16.172L112.813 16.382L112.015 16.746C111.987 16.7553 111.893 16.7927 111.735 16.858C111.576 16.914 111.436 17.012 111.315 17.152C111.203 17.292 111.147 17.4553 111.147 17.642C111.147 17.866 111.217 18.0433 111.357 18.174C111.506 18.2953 111.674 18.356 111.861 18.356C112.01 18.356 112.164 18.3047 112.323 18.202L113.023 17.726L113.037 17.95L112.057 18.65C111.842 18.8087 111.641 18.9253 111.455 19C111.268 19.0653 111.058 19.098 110.825 19.098Z" fill="#6B2C3E"/>
<line x1="51.5" y1="8" x2="51.5" y2="49" stroke="#6B2C3E"/>
</svg>
