<svg width="43" height="60" viewBox="0 0 43 60" fill="none" xmlns="http://www.w3.org/2000/svg">
<path d="M41.8997 39.552C41.3561 38.897 34.9602 33.4577 34.7336 33.4577C34.6204 33.4577 34.1965 33.7751 33.7916 34.1631L33.0553 34.8685L30.3881 32.2103C28.9211 30.7483 27.5897 29.5521 27.4294 29.5521C27.2691 29.5521 26.1345 30.6066 24.908 31.8955C23.6815 33.1843 22.6137 34.2388 22.535 34.2388C22.4564 34.2388 22.3921 26.5644 22.3921 17.1845C22.3921 7.62884 22.4921 0.130127 22.6196 0.130127C23.1038 0.130127 30.0667 7.09925 32.0828 9.60171C39.1732 18.4024 42.7011 27.3701 42.7011 36.5927C42.7011 39.6859 42.5313 40.313 41.8997 39.552Z" fill="#6B2C3E"/>
<path d="M11.4564 39.8295C10.2391 39.6482 7.16347 39.4121 4.62159 39.3048L0 39.1098V36.0693C0 30.7575 1.17107 25.7908 3.68377 20.446C6.4865 14.4842 9.61877 10.2228 15.4588 4.42632L19.9184 0L19.9915 17.1845L20.0647 34.3691L16.9973 37.2882C15.3102 38.8937 13.8713 40.1965 13.7997 40.1832C13.7281 40.1699 12.6736 40.0107 11.4564 39.8295Z" fill="#6B2C3E"/>
<path d="M33.0672 40.7228C31.4204 39.5683 29.888 38.4573 29.6619 38.2539C29.0445 37.6984 28.5968 37.7954 27.2026 38.7867C26.5044 39.2831 25.8936 39.6498 25.8454 39.6016C25.7972 39.5534 26.055 38.6286 26.4182 37.5465C27.1007 35.5134 27.2605 34.2388 26.833 34.2388C26.6978 34.2388 25.3808 35.5821 23.9063 37.2239C21.2473 40.1845 21.2225 40.2038 20.889 39.5673C20.449 38.7275 20.2212 38.7545 18.7727 39.8178C17.5006 40.7516 16.2944 41.2036 16.065 40.8325C15.9908 40.7125 17.1015 39.5122 18.5332 38.1652L21.1362 35.716L21.945 36.1938L22.7539 36.6716L25.1265 34.1561L27.4991 31.6406L28.5257 32.7017C29.0903 33.2853 30.3394 34.4645 31.3015 35.3222L33.0508 36.8816L33.9166 36.2212L34.7824 35.5608L37.57 38.0325C39.1032 39.3919 40.3576 40.6112 40.3576 40.742C40.3576 40.983 38.5375 40.2444 36.1502 39.0347L34.8411 38.3713L35.0228 39.2342C35.1227 39.7089 35.4084 40.7123 35.6577 41.4641C35.9069 42.216 36.0997 42.829 36.0862 42.8264C36.0726 42.8235 34.7141 41.8772 33.0672 40.7228Z" fill="#888989"/>
<path d="M33.9789 54.1243C30.7099 51.3405 23.2525 47.2864 18.2399 45.568C13.1129 43.8102 4.77311 42.0553 1.52786 42.0511C0.780718 42.0502 0.551199 41.9328 0.436121 41.4928C0.290664 40.9365 0.297539 40.9358 4.37642 41.0782C15.7188 41.4742 27.4271 45.0602 35.7202 50.6779C36.5348 51.2297 37.2665 51.7869 37.3463 51.916C37.4909 52.1499 35.2567 54.8166 34.9311 54.7988C34.8369 54.7939 34.4085 54.4901 33.9789 54.1243Z" fill="#888989"/>
<path d="M11.0057 57.2402C9.31768 56.2416 6.37643 53.7519 7.55091 54.3157C9.19135 55.1033 13.3166 58.193 12.7277 58.193C12.6665 58.193 11.8916 57.7642 11.0057 57.2402Z" fill="#888989"/>
<path d="M26.2928 56.9902C22.5341 53.6646 18.0996 50.9112 13.0187 48.7484C9.8112 47.3831 5.22529 45.871 2.94393 45.4266C1.49774 45.1448 1.30277 45.0306 1.05506 44.3201C0.903147 43.8843 0.819589 43.487 0.869377 43.4372C1.02585 43.2807 7.0489 44.3783 9.63383 45.0343C17.5097 47.033 25.982 51.2635 30.8181 55.6122L32.3442 56.9845L30.6879 57.8365C29.7769 58.3051 28.8536 58.6941 28.6361 58.7011C28.4186 58.708 27.3641 57.9381 26.2928 56.9902Z" fill="#888989"/>
<path d="M17.9656 58.6768C14.8504 55.8157 7.86181 51.3682 4.68764 50.2268C3.61195 49.84 3.36828 49.6064 2.77187 48.3903C2.39604 47.624 2.1951 46.9971 2.32534 46.9971C3.23965 46.9971 11.5252 50.3593 14.0185 51.7421C18.4521 54.2009 24.9085 59.32 24.1681 59.7895C23.9788 59.9095 22.828 60.0042 21.6108 59.9998L19.3976 59.992L17.9656 58.6768Z" fill="#888989"/>
</svg>
