<svg xmlns="http://www.w3.org/2000/svg" width="57.27" height="57.27" viewBox="0 0 57.27 57.27">
  <g id="Raggruppa_67" data-name="Raggruppa 67" transform="translate(-3461.697 -364.681)">
    <g id="Raggruppa_66" data-name="Raggruppa 66">
      <g id="Raggruppa_64" data-name="Raggruppa 64" opacity="0.3">
        <circle id="Ellisse_8" data-name="Ellisse 8" cx="28.135" cy="28.135" r="28.135" transform="translate(3462.197 365.181)" fill="none" stroke="#5c9364" stroke-width="1"/>
      </g>
      <g id="Raggruppa_65" data-name="Raggruppa 65">
        <path id="Tracciato_36" data-name="Tracciato 36" d="M3485.7,398.186a8.263,8.263,0,0,1-3.482-5.2,8.371,8.371,0,0,1,0-3.337,8.295,8.295,0,0,1,4.888-5.959,8.144,8.144,0,0,1,1.554-.482,8.32,8.32,0,0,1,3.337,0,8.166,8.166,0,0,1,1.554.482,8.283,8.283,0,0,1,2.631,1.774,8.433,8.433,0,0,1,1.011,1.225,8.3,8.3,0,0,1,.763,1.406,8.165,8.165,0,0,1,.482,1.554,8.312,8.312,0,0,1,0,3.337,8.142,8.142,0,0,1-.482,1.554,8.316,8.316,0,0,1-3,3.642" fill="none" stroke="#5c9364" stroke-linecap="round" stroke-linejoin="round" stroke-width="1"/>
        <line id="Linea_13" data-name="Linea 13" x1="2.759" transform="translate(3476.535 391.322)" fill="none" stroke="#5c9364" stroke-linecap="round" stroke-linejoin="round" stroke-width="1"/>
        <line id="Linea_14" data-name="Linea 14" x1="2.759" transform="translate(3501.37 391.322)" fill="none" stroke="#5c9364" stroke-linecap="round" stroke-linejoin="round" stroke-width="1"/>
        <line id="Linea_15" data-name="Linea 15" y2="2.759" transform="translate(3490.332 377.524)" fill="none" stroke="#5c9364" stroke-linecap="round" stroke-linejoin="round" stroke-width="1"/>
        <line id="Linea_16" data-name="Linea 16" x1="1.951" y1="1.951" transform="translate(3480.576 381.565)" fill="none" stroke="#5c9364" stroke-linecap="round" stroke-linejoin="round" stroke-width="1"/>
        <line id="Linea_17" data-name="Linea 17" x1="1.951" y1="1.951" transform="translate(3498.137 399.127)" fill="none" stroke="#5c9364" stroke-linecap="round" stroke-linejoin="round" stroke-width="1"/>
        <line id="Linea_18" data-name="Linea 18" x1="1.951" y2="1.951" transform="translate(3480.576 399.127)" fill="none" stroke="#5c9364" stroke-linecap="round" stroke-linejoin="round" stroke-width="1"/>
        <line id="Linea_19" data-name="Linea 19" x1="1.951" y2="1.951" transform="translate(3498.137 381.565)" fill="none" stroke="#5c9364" stroke-linecap="round" stroke-linejoin="round" stroke-width="1"/>
        <line id="Linea_20" data-name="Linea 20" x2="5.519" transform="translate(3487.573 407.879)" fill="none" stroke="#5c9364" stroke-linecap="round" stroke-linejoin="round" stroke-width="1"/>
        <line id="Linea_21" data-name="Linea 21" x2="8.278" transform="translate(3486.193 405.119)" fill="none" stroke="#5c9364" stroke-linecap="round" stroke-linejoin="round" stroke-width="1"/>
        <line id="Linea_22" data-name="Linea 22" x2="8.278" transform="translate(3486.193 402.36)" fill="none" stroke="#5c9364" stroke-linecap="round" stroke-linejoin="round" stroke-width="1"/>
        <path id="Tracciato_37" data-name="Tracciato 37" d="M3487.573,388.562a62.807,62.807,0,0,1,1.379,13.8" fill="none" stroke="#5c9364" stroke-linecap="round" stroke-linejoin="round" stroke-width="1"/>
        <path id="Tracciato_38" data-name="Tracciato 38" d="M3493.092,388.562a62.8,62.8,0,0,0-1.38,13.8" fill="none" stroke="#5c9364" stroke-linecap="round" stroke-linejoin="round" stroke-width="1"/>
        <path id="Tracciato_39" data-name="Tracciato 39" d="M3493.092,392.7a3.449,3.449,0,0,0-5.519,0" fill="none" stroke="#5c9364" stroke-linecap="round" stroke-linejoin="round" stroke-width="1"/>
      </g>
    </g>
  </g>
</svg>
