<svg xmlns="http://www.w3.org/2000/svg" width="288.875" height="74.469" viewBox="0 0 288.875 74.469">
  <g id="Raggruppa_125" data-name="Raggruppa 125" transform="translate(-310 -115.297)">
    <g id="Raggruppa_123" data-name="Raggruppa 123">
      <g id="Raggruppa_122" data-name="Raggruppa 122">
        <path id="Tracciato_73" data-name="Tracciato 73" d="M354.115,186.059" fill="none" stroke="#5c8c64" stroke-width="4"/>
      </g>
      <path id="Tracciato_74" data-name="Tracciato 74" d="M436.9,149.189h3.111v14.3h7.3v2.745H436.9Z" fill="#fff"/>
      <path id="Tracciato_75" data-name="Tracciato 75" d="M450.005,149.189h11.326v2.746h-8.215V156.3h7.757v2.745h-7.757v4.439h8.215v2.745H450.005Z" fill="#fff"/>
      <path id="Tracciato_76" data-name="Tracciato 76" d="M469.063,149.189h6.36a7.164,7.164,0,0,1,3.077.629,4.869,4.869,0,0,1,2.093,1.819,5.967,5.967,0,0,1-.011,5.834,4.916,4.916,0,0,1-2.094,1.842,7.081,7.081,0,0,1-3.065.629h-3.25v6.291h-3.11Zm6.406,8.007a2.8,2.8,0,0,0,2.013-.72,2.81,2.81,0,0,0,0-3.833,2.826,2.826,0,0,0-2.013-.708h-3.3V157.2Z" fill="#fff"/>
      <path id="Tracciato_77" data-name="Tracciato 77" d="M484.574,149.189H495.9v2.746h-8.214V156.3h7.757v2.745h-7.757v4.439H495.9v2.745H484.574Z" fill="#fff"/>
      <path id="Tracciato_78" data-name="Tracciato 78" d="M498.873,149.189h6.338a7.159,7.159,0,0,1,3.076.629,4.872,4.872,0,0,1,2.094,1.819,5.361,5.361,0,0,1,.755,2.928,5.229,5.229,0,0,1-.835,3,4.982,4.982,0,0,1-2.254,1.831l3.912,6.84h-3.523l-3.523-6.291h-2.929v6.291h-3.111Zm6.383,8.007a2.8,2.8,0,0,0,2.013-.72,2.807,2.807,0,0,0,0-3.833,2.823,2.823,0,0,0-2.013-.708h-3.272V157.2Z" fill="#fff"/>
      <path id="Tracciato_79" data-name="Tracciato 79" d="M514.683,149.189h3.11v14.3h7.3v2.745H514.683Z" fill="#fff"/>
      <path id="Tracciato_80" data-name="Tracciato 80" d="M527.792,149.189h11.325v2.746H530.9V156.3h7.757v2.745H530.9v4.439h8.214v2.745H527.792Z" fill="#fff"/>
      <path id="Tracciato_81" data-name="Tracciato 81" d="M436.9,172.446h5.559a9.7,9.7,0,0,1,4.713,1.086,7.8,7.8,0,0,1,3.089,3,9.451,9.451,0,0,1,0,8.843,7.838,7.838,0,0,1-3.1,3.02,9.625,9.625,0,0,1-4.7,1.1H436.9Zm5.628,14.3a6.129,6.129,0,0,0,3.02-.71,4.882,4.882,0,0,0,1.979-2.012,6.409,6.409,0,0,0,.7-3.066,6.247,6.247,0,0,0-.71-3.053,5.013,5.013,0,0,0-1.978-2,6.1,6.1,0,0,0-3.009-.708h-2.517v11.553Z" fill="#fff"/>
      <path id="Tracciato_82" data-name="Tracciato 82" d="M454.512,172.446h3.111v17.043h-3.111Z" fill="#fff"/>
      <path id="Tracciato_83" data-name="Tracciato 83" d="M469.417,189.17a7.019,7.019,0,0,1-2.38-1.659,6.522,6.522,0,0,1-1.452-2.483l2.585-1.121a5.267,5.267,0,0,0,1.785,2.3,4.405,4.405,0,0,0,2.63.836,3.12,3.12,0,0,0,1.957-.573,1.815,1.815,0,0,0,.743-1.511,1.737,1.737,0,0,0-.446-1.234,3.159,3.159,0,0,0-1.338-.778l-3.272-1.053a6.237,6.237,0,0,1-3-1.864,4.412,4.412,0,0,1-1.007-2.894,4.681,4.681,0,0,1,.721-2.586,4.864,4.864,0,0,1,2.013-1.75,6.7,6.7,0,0,1,2.963-.63,6.945,6.945,0,0,1,4.016,1.167,6.173,6.173,0,0,1,2.39,3.089l-2.562,1.144a4.207,4.207,0,0,0-1.51-1.979,4,4,0,0,0-2.334-.7,2.937,2.937,0,0,0-1.91.584,1.865,1.865,0,0,0-.721,1.522,1.845,1.845,0,0,0,.469,1.246,3.029,3.029,0,0,0,1.384.835l3.135.984q4.071,1.305,4.072,4.713a4.518,4.518,0,0,1-.755,2.585,5.146,5.146,0,0,1-2.082,1.762,7.028,7.028,0,0,1-3.088.641A7.548,7.548,0,0,1,469.417,189.17Z" fill="#fff"/>
      <path id="Tracciato_84" data-name="Tracciato 84" d="M486.153,172.446h4.026l5.88,17.043h-3.385l-1.213-3.66h-6.589l-1.236,3.66h-3.362Zm4.415,10.638-2.4-7.185-2.4,7.185Z" fill="#fff"/>
      <path id="Tracciato_85" data-name="Tracciato 85" d="M498.645,172.446h6.337a7.164,7.164,0,0,1,3.077.628,4.878,4.878,0,0,1,2.094,1.819,5.363,5.363,0,0,1,.755,2.928,5.23,5.23,0,0,1-.835,3,4.987,4.987,0,0,1-2.254,1.831l3.912,6.839h-3.523l-3.523-6.291h-2.929v6.291h-3.111Zm6.383,8.006a2.8,2.8,0,0,0,2.013-.719,2.811,2.811,0,0,0,0-3.834,2.829,2.829,0,0,0-2.013-.708h-3.272v5.261Z" fill="#fff"/>
      <path id="Tracciato_86" data-name="Tracciato 86" d="M514.453,172.446h5.56a9.7,9.7,0,0,1,4.712,1.086,7.79,7.79,0,0,1,3.089,3,9.452,9.452,0,0,1,0,8.843,7.836,7.836,0,0,1-3.1,3.02,9.625,9.625,0,0,1-4.7,1.1h-5.56Zm5.628,14.3a6.127,6.127,0,0,0,3.02-.71,4.882,4.882,0,0,0,1.979-2.012,6.41,6.41,0,0,0,.7-3.066,6.257,6.257,0,0,0-.709-3.053,5.009,5.009,0,0,0-1.979-2,6.1,6.1,0,0,0-3.009-.708h-2.517v11.553Z" fill="#fff"/>
      <path id="Tracciato_87" data-name="Tracciato 87" d="M535.867,172.446h4.027l5.88,17.043h-3.386l-1.213-3.66h-6.589l-1.235,3.66h-3.363Zm4.416,10.638-2.4-7.185-2.4,7.185Z" fill="#fff"/>
      <path id="Tracciato_88" data-name="Tracciato 88" d="M552.363,189.113a8.265,8.265,0,0,1-2.723-1.842,8.5,8.5,0,0,1-1.818-2.8,9.277,9.277,0,0,1-.652-3.512,9.434,9.434,0,0,1,.64-3.512,8.419,8.419,0,0,1,1.785-2.791,8.031,8.031,0,0,1,2.7-1.83,8.64,8.64,0,0,1,3.385-.653,8.294,8.294,0,0,1,3.283.619,7.562,7.562,0,0,1,2.46,1.636,6.072,6.072,0,0,1,1.441,2.23l-2.768,1.328a4.532,4.532,0,0,0-4.416-2.976,5.274,5.274,0,0,0-2.814.744,5.122,5.122,0,0,0-1.9,2.081,6.758,6.758,0,0,0-.687,3.124,6.655,6.655,0,0,0,.7,3.123,5.235,5.235,0,0,0,1.933,2.094,5.333,5.333,0,0,0,2.837.754,5.613,5.613,0,0,0,2.4-.514,4.38,4.38,0,0,0,1.761-1.465,3.833,3.833,0,0,0,.663-2.253v-.068h-4.9V180h8.008v1.716a8.547,8.547,0,0,1-.664,3.489,7.305,7.305,0,0,1-1.8,2.515,7.713,7.713,0,0,1-2.55,1.534,8.551,8.551,0,0,1-2.929.515A8.685,8.685,0,0,1,552.363,189.113Z" fill="#fff"/>
      <path id="Tracciato_89" data-name="Tracciato 89" d="M566.845,172.446h2.425l8.122,10.936V172.446H580.5v17.043h-2.449l-8.1-11.141v11.141h-3.111Z" fill="#fff"/>
      <path id="Tracciato_90" data-name="Tracciato 90" d="M588.969,172.446h4.026l5.88,17.043H595.49l-1.213-3.66h-6.589l-1.236,3.66h-3.363Zm4.415,10.638-2.4-7.185-2.4,7.185Z" fill="#fff"/>
    </g>
    <g id="Raggruppa_124" data-name="Raggruppa 124">
      <path id="Tracciato_91" data-name="Tracciato 91" d="M351.992,189.765V163.609L331,149.951l-21,13.658v26.156Z" fill="#5c8c64"/>
      <path id="Tracciato_92" data-name="Tracciato 92" d="M351.992,136.294v27.315h32.28v26.156h32.28V136.294l-32.28-21Z" fill="#5c8c64"/>
    </g>
  </g>
</svg>
